<svg width="24" height="32" viewBox="0 0 19 16" fill="none" xmlns="http://www.w3.org/2000/svg">
<path d="M18.5962 0.375C17.8993 0.819886 16.5011 1.4262 15.6792 1.60108C15.6551 1.60781 15.6354 1.61645 15.6122 1.62318C14.8858 0.852556 13.8906 0.375 12.789 0.375C10.5689 0.375 8.76869 2.31117 8.76869 4.69895C8.76869 4.82482 8.75886 5.05639 8.76869 5.17939C5.77309 5.17939 3.49312 3.49209 1.85819 1.33588C1.6804 1.81632 1.60267 2.57541 1.60267 3.28838C1.60267 4.63457 2.58095 5.95674 4.10421 6.77637C3.82368 6.8542 3.51456 6.90993 3.19294 6.90993C2.67387 6.90993 2.12442 6.76291 1.62143 6.31707C1.62143 6.3334 1.62143 6.34878 1.62143 6.36607C1.62143 8.24747 3.47793 9.52832 5.12895 9.8848C4.79392 10.0972 4.11851 10.1183 3.78884 10.1183C3.55655 10.1183 2.73462 10.004 2.51484 9.95975C2.97405 11.502 4.63043 12.3687 6.20908 12.3994C4.97439 13.441 4.11761 13.8273 1.58927 13.8273H0.728027C2.32544 14.9285 4.35973 15.75 6.39848 15.75C13.0365 15.75 16.8093 10.3086 16.8093 5.17939C16.8093 5.09675 16.8076 4.92379 16.8049 4.74988C16.8049 4.73258 16.8093 4.71624 16.8093 4.69895C16.8093 4.673 16.8022 4.64802 16.8022 4.62208C16.7995 4.4914 16.7968 4.36937 16.7942 4.30595C17.4999 3.75825 18.1119 3.07507 18.5962 2.29675C17.9484 2.60616 17.2534 2.81371 16.5235 2.90787C17.2686 2.42743 18.3272 1.28207 18.5962 0.375Z" fill="black"/>
</svg>
