<svg width="24" height="32" viewBox="0 0 18 16" fill="none" xmlns="http://www.w3.org/2000/svg">
<path d="M15.8855 0.375H1.98809C0.89119 0.375 0.00274658 1.13948 0.00274658 2.08333V14.0417C0.00274658 14.9855 0.89119 15.75 1.98809 15.75H15.8855C16.9824 15.75 17.8709 14.9855 17.8709 14.0417V2.08333C17.8709 1.13948 16.9824 0.375 15.8855 0.375ZM14.8005 11.2093L13.0782 11.2298C13.0782 11.2298 12.707 11.2921 12.2206 11.0034C11.5763 10.6224 10.9688 9.6316 10.4953 9.76058C10.0149 9.89213 10.0297 10.7839 10.0297 10.7839C10.0297 10.7839 10.0337 10.941 9.92353 11.0435C9.80441 11.1537 9.57113 11.1426 9.57113 11.1426H8.79982C8.79982 11.1426 7.09838 11.2639 5.59845 9.9186C3.96451 8.452 2.52116 5.55723 2.52116 5.55723C2.52116 5.55723 2.43678 5.37444 2.52712 5.28133C2.62936 5.17798 2.90533 5.17542 2.90533 5.17542L4.74872 5.16773C4.74872 5.16773 4.92244 5.19421 5.04752 5.27279C5.14976 5.33771 5.20833 5.45985 5.20833 5.45985C5.20833 5.45985 5.50613 6.10988 5.90122 6.6984C6.67153 7.84554 7.02989 8.09667 7.29096 7.97367C7.67215 7.79429 7.55799 6.35246 7.55799 6.35246C7.55799 6.35246 7.56494 5.82885 7.3664 5.59567C7.21155 5.41373 6.92069 5.35992 6.79264 5.34625C6.68841 5.33429 6.85815 5.12673 7.07952 5.03277C7.41107 4.89354 7.99774 4.885 8.68964 4.89098C9.22866 4.8961 9.38451 4.92429 9.59496 4.96871C10.2313 5.1011 10.0149 5.6119 10.0149 6.83763C10.0149 7.23054 9.93246 7.78233 10.261 7.96427C10.403 8.04285 10.7484 7.97623 11.6111 6.71206C12.0211 6.11244 12.3278 5.40775 12.3278 5.40775C12.3278 5.40775 12.3953 5.28219 12.4995 5.22838C12.6067 5.17285 12.7507 5.18994 12.7507 5.18994L14.6913 5.17969C14.6913 5.17969 15.274 5.11904 15.3693 5.3471C15.4686 5.58542 15.1519 6.14148 14.3588 7.05117C13.0574 8.54596 12.9125 8.40673 13.9935 9.27115C15.0259 10.0971 15.2393 10.4986 15.275 10.549C15.7019 11.1606 14.8005 11.2093 14.8005 11.2093Z" fill="black"/>
</svg>
