<svg width="24" height="32" viewBox="0 0 19 16" fill="none" xmlns="http://www.w3.org/2000/svg">
<path d="M16.1228 2.6259C14.4378 1.17527 12.197 0.375769 9.8097 0.375C4.89035 0.375 0.886799 3.81823 0.885012 8.05097C0.884119 9.40397 1.29511 10.7247 2.07598 11.8886L0.865356 15.75L5.54079 14.7991C6.84433 15.411 8.31138 15.7331 9.80523 15.7339H9.8088C14.7273 15.7339 18.7308 12.2899 18.7335 8.05789C18.7353 6.00609 17.8079 4.0773 16.1228 2.6259ZM14.176 10.7946C13.9902 11.2428 13.0797 11.6749 12.6705 11.7064C12.2613 11.7387 11.878 11.8655 9.99464 11.2267C7.72795 10.4579 6.29665 8.45841 6.18586 8.33079C6.07418 8.20241 5.27543 7.29067 5.27543 6.34665C5.27543 5.40262 5.85171 4.9383 6.05631 4.74688C6.26091 4.55469 6.50214 4.50703 6.65135 4.50703C6.79966 4.50703 6.94887 4.50703 7.07842 4.51164C7.23745 4.51703 7.41346 4.52394 7.58054 4.84298C7.77888 5.22274 8.21221 6.17138 8.2676 6.26747C8.32299 6.36356 8.36052 6.4758 8.28636 6.60341C8.21221 6.73103 8.17468 6.81098 8.06389 6.92321C7.95221 7.03545 7.82981 7.17306 7.72974 7.25916C7.61806 7.35448 7.50191 7.45903 7.63146 7.65045C7.76191 7.84264 8.20863 8.47071 8.87157 8.97885C9.72392 9.63229 10.4414 9.83447 10.6647 9.93133C10.8881 10.0274 11.0176 10.0113 11.1481 9.8829C11.2785 9.75529 11.7056 9.32325 11.8539 9.13106C12.0022 8.93888 12.1514 8.97116 12.356 9.03497C12.5606 9.09878 13.6569 9.5631 13.8794 9.65919C14.1027 9.75529 14.251 9.80295 14.3064 9.8829C14.3618 9.96208 14.3618 10.3465 14.176 10.7946Z" fill="black"/>
</svg>
