<svg id="Layer_1" viewBox="0 0 100 100" xmlns="http://www.w3.org/2000/svg">
    <path
        d="m81.361 62.585c-.036-.218-.166-.408-.355-.521-.19-.114-.418-.138-.628-.065l-6.48 2.224c-.392.134-.6.561-.466.953s.559.601.953.466l4.567-1.567c-4.391 7.342-11.333 12.598-19.616 14.817-8.451 2.264-17.276 1.102-24.851-3.271-15.639-9.03-21.016-29.1-11.987-44.737 2.593-4.492 6.092-8.199 10.399-11.019.347-.227.444-.692.217-1.038-.227-.347-.692-.442-1.038-.217-4.506 2.95-8.166 6.827-10.877 11.524-9.442 16.354-3.819 37.342 12.536 46.786 5.277 3.047 11.134 4.603 17.069 4.603 2.975 0 5.97-.391 8.92-1.182 8.651-2.318 15.904-7.805 20.497-15.468l.758 4.558c.061.367.379.627.739.627.041 0 .083-.003.124-.01.409-.068.685-.454.617-.863z" />
</svg>