<svg id="imageIcon" enable-background="new 0 0 495.742 495.742" viewBox="0 0 495.742 495.742"
    xmlns="http://www.w3.org/2000/svg">
    <g>
        <g id="Layer_x0020_1_10_">
            <g id="_227186224">
                <path id="_227186176"
                    d="m21.661 73.864h452.42c5.962 0 11.379 2.436 15.302 6.359s6.359 9.34 6.359 15.302v304.691c0 5.962-2.436 11.379-6.359 15.302-3.924 3.923-9.341 6.359-15.302 6.359h-452.42c-5.961 0-11.378-2.436-15.302-6.359-3.923-3.922-6.359-9.339-6.359-15.301v-304.692c0-5.962 2.436-11.379 6.359-15.302s9.34-6.359 15.302-6.359zm452.42 10.348h-452.42c-3.106 0-5.934 1.275-7.986 3.328-2.053 2.053-3.328 4.881-3.328 7.986v304.691c0 3.106 1.275 5.934 3.328 7.986 2.053 2.053 4.881 3.327 7.986 3.327h452.42c3.106 0 5.934-1.274 7.986-3.327 2.053-2.053 3.328-4.881 3.328-7.986v-304.692c0-3.106-1.275-5.934-3.328-7.986-2.053-2.053-4.881-3.327-7.986-3.327z" />
                <path id="_227185816"
                    d="m9.514 268.555 3.48 3.913c28.684 32.269 57.369 64.539 84.512 64.539s55.828-32.272 84.513-64.542c30.23-34.008 60.461-68.018 92.233-68.018s62.003 34.009 92.233 68.018c28.685 32.27 57.37 64.542 84.513 64.542l.222.02c6.353.289 12.767-.107 19.232-1.036 6.508-.936 13.057-2.416 19.637-4.284l2.789 9.942c-6.993 1.985-13.983 3.562-20.971 4.567-6.958 1-13.925 1.43-20.91 1.127v.01c-31.773 0-62.003-34.01-92.233-68.018-28.685-32.271-57.371-64.542-84.514-64.542s-55.829 32.272-84.514 64.542c-30.23 34.009-60.46 68.018-92.233 68.018-31.772 0-62.002-34.008-92.231-68.015l-3.48-3.913z" />
                <path id="_227185792"
                    d="m404.681 131.173c12.541 0 23.895 5.084 32.113 13.302 8.219 8.218 13.302 19.573 13.302 32.113 0 12.541-5.083 23.895-13.302 32.113-8.218 8.219-19.573 13.302-32.113 13.302s-23.894-5.084-32.113-13.302c-8.219-8.219-13.302-19.573-13.302-32.113 0-12.541 5.084-23.895 13.302-32.113 8.219-8.219 19.573-13.302 32.113-13.302zm24.797 20.618c-6.345-6.346-15.113-10.271-24.797-10.271s-18.452 3.925-24.797 10.271c-6.346 6.345-10.271 15.113-10.271 24.797s3.925 18.452 10.271 24.797c6.345 6.346 15.113 10.271 24.797 10.271s18.452-3.925 24.797-10.271c6.346-6.345 10.271-15.113 10.271-24.797s-3.925-18.452-10.271-24.797z" />
            </g>
        </g>
    </g>
</svg>