<svg id="integrationIcon" enable-background="new 0 0 468 468" viewBox="0 0 468 468"
    xmlns="http://www.w3.org/2000/svg">
    <g>
        <g>
            <path
                d="m117.774 177.939h60l.327-58.238c.087-15.801 19.811-25.084 31.232-13.129 4.897 5.129 11.706 7.304 18.696 5.968 7.983-1.527 14.646-8.313 16.203-16.5 1.251-6.58-.392-13.205-4.508-18.177-3.935-4.753-9.664-7.479-15.717-7.479-5.564 0-10.786 2.268-14.704 6.388-11.39 11.945-31.202 2.6-31.202-13.174v-63.598h-161.472c-9.169 0-16.629 7.463-16.629 16.637v161.303h64.827c.483-.612.501-1.241.056-1.888-7.355-7.299-11.406-17.055-11.406-27.472 0-23.709 21.936-42.344 45.352-37.699 14.924 2.959 26.825 15.174 29.616 30.395 2.338 12.75-1.654 25.729-10.679 34.721-.509.655-.506 1.303.008 1.942z" />
            <path
                d="m194.948 177.964 58.281.173c15.829.056 25.074 19.885 13.184 31.368-11.676 11.267-5.809 32.306 10.51 35.441 12.878 2.476 25.628-7.124 25.628-20.522 0-5.664-2.279-10.972-6.416-14.949-11.917-11.44-2.549-31.338 13.203-31.338l63.666-.013v-161.487c0-9.173-7.46-16.637-16.629-16.637h-161.1v62.66c.239.987.484 1.655.678 2.088.431-.134 1.051-.375 1.884-.807 7.076-6.933 16.315-10.733 26.169-10.733 23.959 0 41.498 22.895 37.098 46.039-2.886 15.175-14.88 27.296-29.846 30.161-12.193 2.332-24.578-1.407-33.4-10.019-.826-.439-1.443-.687-1.874-.827-.203.445-.461 1.137-.714 2.166z" />
            <path
                d="m0 195.114v161.304c0 9.173 7.46 16.637 16.629 16.637h161.722l-.144-63.93c-.538-.455-1.09-.476-1.656-.063-7.247 7.454-16.948 11.559-27.316 11.559-14.518 0-27.586-8.059-34.104-21.031-6.607-13.152-5.156-36.358 7.782-45.951 20.609-15.257 41.762-9.864 53.584 2.247.521.445 1.045.467 1.574.067l-.303-60.84h-63.228c-15.067 0-17.181-23.033-8.896-31.285 5.092-5.073 7.245-12.165 5.908-19.456-1.507-8.224-8.113-15.069-16.064-16.647-12.902-2.554-24.836 8.053-24.836 20.854 0 5.805 2.247 11.231 6.327 15.28 8.454 8.385 6.008 31.254-9.036 31.254h-67.943z" />
            <path
                d="m195.556 373.057 61.03.02c-1.133-63.165 53.218-117.494 116.414-116.282l.002-61.496-62.702.013c-1.035.258-1.717.52-2.147.722.131.447.381 1.113.855 2.028 6.922 7.129 10.716 16.437 10.716 26.362 0 23.986-22.742 41.869-46.042 37.389-15.171-2.914-27.284-15.009-30.141-30.095-2.324-12.276 1.411-24.747 10.008-33.635.482-.908.739-1.571.875-2.017-.439-.211-1.142-.486-2.214-.758l-56.667-.168v60.947c.864 15.992-21.158 22.219-31.337 11.796-6.037-6.186-17.593-10.046-30.487-.868-5.877 8.241-7.062 17.263-3.243 24.863 6.277 12.493 23.993 15.259 33.76 5.211 9.83-10.11 32.183-4.402 31.308 11.567z" />
        </g>
        <path
            d="m370.87 273.949c-53.557 0-97.129 43.525-97.129 97.025s43.573 97.026 97.129 97.026c53.558 0 97.13-43.526 97.13-97.026s-43.572-97.025-97.13-97.025zm-29.411 88.109-27.934 13.976 27.934 13.976v20.172l-.587-.301-53.772-27.642v-12.409l.218-.113 54.141-27.831zm55.057-28.971-29.703 76.755h-19.318l30.007-77.818h19.427zm3.766 77.075v-20.168l28.123-13.96-28.123-13.96v-20.167l54.359 27.824v12.606z" />
    </g>
</svg>