<svg viewBox="0 0 512 512" id="questionsIcon" xmlns="http://www.w3.org/2000/svg">
    <path
        d="m497 0h-301c-8.289062 0-15 6.710938-15 15v61c0 8.289062 6.710938 15 15 15h50.726562l25.855469 51.710938c2.550781 5.082031 7.734375 8.289062 13.417969 8.289062s10.867188-3.207031 13.417969-8.289062l25.855469-51.710938h171.726562c8.289062 0 15-6.710938 15-15v-61c0-8.289062-6.710938-15-15-15zm0 0" />
    <path
        d="m15 91h121c8.289062 0 15-6.710938 15-15v-61c0-8.289062-6.710938-15-15-15h-121c-8.289062 0-15 6.710938-15 15v61c0 8.289062 6.710938 15 15 15zm0 0" />
    <path
        d="m497 181h-301c-8.289062 0-15 6.710938-15 15v60c0 8.289062 6.710938 15 15 15h50.726562l25.855469 51.710938c2.550781 5.082031 7.734375 8.289062 13.417969 8.289062s10.867188-3.207031 13.417969-8.289062l25.855469-51.710938h171.726562c8.289062 0 15-6.710938 15-15v-60c0-8.289062-6.710938-15-15-15zm0 0" />
    <path
        d="m15 271h121c8.289062 0 15-6.710938 15-15v-60c0-8.289062-6.710938-15-15-15h-121c-8.289062 0-15 6.710938-15 15v60c0 8.289062 6.710938 15 15 15zm0 0" />
    <path
        d="m497 361h-301c-8.289062 0-15 6.710938-15 15v60c0 8.289062 6.710938 15 15 15h50.726562l25.855469 52.710938c2.550781 5.082031 7.734375 8.289062 13.417969 8.289062s10.867188-3.207031 13.417969-8.289062l25.855469-52.710938h171.726562c8.289062 0 15-6.710938 15-15v-60c0-8.289062-6.710938-15-15-15zm0 0" />
    <path
        d="m15 451h121c8.289062 0 15-6.710938 15-15v-60c0-8.289062-6.710938-15-15-15h-121c-8.289062 0-15 6.710938-15 15v60c0 8.289062 6.710938 15 15 15zm0 0" />
</svg>