<svg width="24" height="32" viewBox="0 0 19 16" fill="none" xmlns="http://www.w3.org/2000/svg">
<path d="M16.941 0.376399C16.6828 0.387125 16.4459 0.458047 16.2377 0.536401C16.0454 0.60873 15.3549 0.885931 14.2552 1.32642C13.1556 1.7669 11.6985 2.35093 10.1454 2.97478C7.03912 4.22248 3.54849 5.62598 1.75989 6.34484C1.69847 6.36928 1.44902 6.44221 1.17352 6.64317C0.897377 6.84461 0.590637 7.28177 0.590637 7.75986C0.590637 8.14553 0.792228 8.53833 1.03565 8.76321C1.27908 8.9881 1.52578 9.09324 1.73197 9.17155V9.16988C2.42894 9.43507 4.51032 10.2305 5.00589 10.4199C5.18167 10.923 5.93629 13.0767 6.11581 13.6183H6.11406C6.24095 14.0016 6.36464 14.2514 6.53639 14.46C6.62227 14.5642 6.72478 14.6587 6.85052 14.7333C6.89877 14.7619 6.95219 14.7841 7.00584 14.805C7.01332 14.808 7.02102 14.8088 7.02853 14.8117L7.00759 14.8067C7.02314 14.8126 7.0371 14.8214 7.05296 14.8267C7.07879 14.8351 7.0967 14.8349 7.13149 14.8417C7.25391 14.8776 7.3761 14.9017 7.48925 14.9017C7.97498 14.9017 8.27282 14.65 8.27282 14.65L8.29202 14.6366L10.3897 12.9416L12.9586 15.2117C13.0055 15.2749 13.3731 15.75 14.2238 15.75C14.7314 15.75 15.1328 15.51 15.3896 15.2583C15.6464 15.0066 15.8063 14.7491 15.8782 14.4L15.88 14.3983C15.9373 14.1165 18.3965 2.3231 18.3965 2.3231L18.3913 2.3431C18.4678 2.01683 18.4904 1.7013 18.4 1.37975C18.3096 1.0582 18.0656 0.744405 17.7717 0.579735C17.4779 0.415066 17.1992 0.365672 16.941 0.376399ZM16.5885 2.24476C16.4913 2.71072 14.2884 13.2803 14.1523 13.9433L10.4421 10.6649L7.93426 12.6899L8.62884 10.0966C8.62884 10.0966 13.4204 5.46447 13.709 5.19482C13.9413 4.97892 13.99 4.90324 13.99 4.82814C13.99 4.7283 13.9362 4.65647 13.812 4.65647C13.7003 4.65647 13.5486 4.75869 13.4682 4.80648C12.4463 5.41492 8.09387 7.78373 5.95351 8.94655C5.8247 8.89722 3.89085 8.15559 2.84887 7.75819C4.70227 7.01322 7.87931 5.73665 10.8382 4.54814C12.3911 3.92439 13.8477 3.33984 14.9463 2.89978C15.8736 2.52831 16.3574 2.33597 16.5885 2.24476ZM14.1261 14.065H14.1278L14.1261 14.07C14.1272 14.0645 14.1252 14.0693 14.1261 14.065Z" fill="black"/>
</svg>
